# xmcd CD database file
#
# Track frame offsets:
#	150
#	13685
#	29062
#	46170
#	63520
#	79052
#	97057
#	112925
#	131082
#	145527
#	164927
#	180180
#	195480
#	210987
#	225960
#	243392
#	259867
#	275330
#
# Disc length: 3877 seconds
#
# Revision: 3
# Processed by: cddbd v1.5.2PL0 Copyright (c) Steve Scherf et al.
# Submitted via: jetAudio 7
#
DISCID=f20f2312
DTITLE=Various Artist - Platinum Ballade 8085 Disc 04
DYEAR=1900
DGENRE=Country
TTITLE0=깊은 밤을 날아서
TTITLE1=나뭇잎 사이로
TTITLE2=가난한 연인들의 기도
TTITLE3=알고 싶어요
TTITLE4=그대 우나봐
TTITLE5=계절이 두 번 바뀌면
TTITLE6=당신만이
TTITLE7=그대는 모르시더이다
TTITLE8=바람에 구름가듯
TTITLE9=겨울아이
TTITLE10=연인들의 이야기
TTITLE11=청춘
TTITLE12=소녀와 가로등
TTITLE13=사랑의 노래
TTITLE14=물레
TTITLE15=우연히
TTITLE16=사랑사랑 누가 말했나
TTITLE17=도요새의 비밀
EXTD=
EXTT0=
EXTT1=
EXTT2=
EXTT3=
EXTT4=
EXTT5=
EXTT6=
EXTT7=
EXTT8=
EXTT9=
EXTT10=
EXTT11=
EXTT12=
EXTT13=
EXTT14=
EXTT15=
EXTT16=
EXTT17=
PLAYORDER=
